# xmcd CD database file
#
# Track frame offsets:
#	182
#	27467
#	63767
#	85202
#	100062
#	124245
#	150012
#	177360
#	197857
#	221562
#
# Disc length: 3248 seconds
#
# Revision: 0
# Processed by: cddbd v1.5.1PL0 Copyright (c) Steve Scherf et al.
# Submitted via: CDex 1.50
#
DISCID=7e0cae0a
DTITLE=Helmut Lipsky - Unclassified
DYEAR=1992
DGENRE=Jazz
TTITLE0=Orien Tale(HongKong)
TTITLE1=Lady in the Moon
TTITLE2=South Bronx
TTITLE3=Cloudless Storm
TTITLE4=Illusions of Forever
TTITLE5=Sanft Wie Stahl (Soft as Steel)
TTITLE6=Kaitekida
TTITLE7=Song Without Words
TTITLE8=The Smile of the Sphinx
TTITLE9=Martha Will Like It
EXTD=YEAR: 1992
EXTT0=
EXTT1=
EXTT2=
EXTT3=
EXTT4=
EXTT5=
EXTT6=
EXTT7=
EXTT8=
EXTT9=
PLAYORDER=
